HIERARCHY
ROOT joint_Root
{
	OFFSET 0.0 0.0 0.0
	CHANNELS 6 Xposition Yposition Zposition Zrotation Xrotation Yrotation 
	JOINT Hips
	{
		OFFSET -0.726466 93.3139 -2.00062
		CHANNELS 6 Xposition Yposition Zposition Zrotation Xrotation Yrotation 
		JOINT Spine
		{
			OFFSET 15.7357 0.0 0.0
			CHANNELS 6 Xposition Yposition Zposition Zrotation Xrotation Yrotation 
			JOINT Chest
			{
				OFFSET 8.98455 -0.406207 0.0
				CHANNELS 6 Xposition Yposition Zposition Zrotation Xrotation Yrotation 
				JOINT Neck
				{
					OFFSET 16.3773 0.0 0.0
					CHANNELS 6 Xposition Yposition Zposition Zrotation Xrotation Yrotation 
					JOINT Head
					{
						OFFSET 6.45672 0.0 0.0
						CHANNELS 6 Xposition Yposition Zposition Zrotation Xrotation Yrotation 
						End Site
						{
							OFFSET 0.0 0.0 0.0
						}
					}
				}
				JOINT Shoulder_L
				{
					OFFSET 12.9942 -0.242716 4.98039
					CHANNELS 6 Xposition Yposition Zposition Zrotation Xrotation Yrotation 
					JOINT UpperArm_L
					{
						OFFSET 5.34809 0.0 0.0
						CHANNELS 6 Xposition Yposition Zposition Zrotation Xrotation Yrotation 
						JOINT LowerArm_L
						{
							OFFSET 24.3286 1.87007e-05 0.0
							CHANNELS 6 Xposition Yposition Zposition Zrotation Xrotation Yrotation 
							JOINT Hand_L
							{
								OFFSET 22.2916 0.0 0.0
								CHANNELS 6 Xposition Yposition Zposition Zrotation Xrotation Yrotation 
								End Site
								{
									OFFSET 0.0 0.0 0.0
								}
							}
						}
					}
				}
				JOINT Shoulder_R
				{
					OFFSET 12.9945 -0.242716 -4.98039
					CHANNELS 6 Xposition Yposition Zposition Zrotation Xrotation Yrotation 
					JOINT UpperArm_R
					{
						OFFSET -5.34813 0.0 0.0
						CHANNELS 6 Xposition Yposition Zposition Zrotation Xrotation Yrotation 
						JOINT LowerArm_R
						{
							OFFSET -24.3289 0.000322201 0.0
							CHANNELS 6 Xposition Yposition Zposition Zrotation Xrotation Yrotation 
							JOINT Hand_R
							{
								OFFSET -22.2915 -0.000108084 0.0
								CHANNELS 6 Xposition Yposition Zposition Zrotation Xrotation Yrotation 
								End Site
								{
									OFFSET 0.0 0.0 0.0
								}
							}
						}
					}
				}
			}
		}
		JOINT UpperLeg_L
		{
			OFFSET -2.19248 -6.46944 0.0
			CHANNELS 6 Xposition Yposition Zposition Zrotation Xrotation Yrotation 
			JOINT LowerLeg_L
			{
				OFFSET 39.0811 0.0 -1.23785e-05
				CHANNELS 6 Xposition Yposition Zposition Zrotation Xrotation Yrotation 
				JOINT Foot_L
				{
					OFFSET 40.9854 0.0 -1.26872e-05
					CHANNELS 6 Xposition Yposition Zposition Zrotation Xrotation Yrotation 
					JOINT Toes_L
					{
						OFFSET 11.7543 0.0 0.0
						CHANNELS 6 Xposition Yposition Zposition Zrotation Xrotation Yrotation 
						End Site
						{
							OFFSET 0.0 0.0 0.0
						}
					}
				}
			}
		}
		JOINT UpperLeg_R
		{
			OFFSET -2.19251 6.46944 0.0
			CHANNELS 6 Xposition Yposition Zposition Zrotation Xrotation Yrotation 
			JOINT LowerLeg_R
			{
				OFFSET -39.0811 -0.00228153 -0.0401928
				CHANNELS 6 Xposition Yposition Zposition Zrotation Xrotation Yrotation 
				JOINT Foot_R
				{
					OFFSET -40.9854 0.0 0.0
					CHANNELS 6 Xposition Yposition Zposition Zrotation Xrotation Yrotation 
					JOINT Toes_R
					{
						OFFSET -11.7543 0.0 0.0
						CHANNELS 6 Xposition Yposition Zposition Zrotation Xrotation Yrotation 
						End Site
						{
							OFFSET 0.0 0.0 0.0
						}
					}
				}
			}
		}
	}
}
MOTION
Frames:	5
Frame Time:	0.0333333
0.000000 0.000000 0.000000 0.000000 0.000000 -0.000000 -2.011450 92.387000 -1.710260 88.548000 0.358382 3.573950 15.735700 0.000005 -0.000001 78.542600 85.942400 -76.709300 8.984550 -0.406207 -0.000000 0.218082 -1.732240 3.667510 16.377300 -0.000001 -0.000001 3.546970 -1.479400 -2.281600 6.456720 -0.000001 -0.000000 4.410210 -1.879640 -2.276840 12.994200 -0.242716 4.980390 -88.016200 -5.614820 -70.504600 5.348090 -0.000007 -0.000001 -80.800700 -32.695700 -84.349300 24.328600 0.000019 0.000005 3.986170 0.441712 -83.687100 22.291600 -0.000001 0.000005 15.626500 5.572810 -9.832970 12.994500 -0.242716 -4.980390 88.366800 5.400490 -73.146400 -5.348130 -0.000001 -0.000004 -63.703700 39.743500 -16.953500 -24.328900 0.000322 -0.000009 2.011380 7.219530 -15.621100 -22.291500 -0.000108 -0.000004 8.168840 5.425570 -3.787630 -2.192480 -6.469440 -0.000000 -175.271000 -5.613770 -3.161160 39.081100 -0.000007 -0.000012 -0.104395 0.259435 21.919500 40.985400 -0.000006 -0.000013 -0.843063 4.581120 -65.406100 11.754300 -0.000000 0.000003 -0.000025 -0.000309 -16.589600 -2.192510 6.469440 -0.000001 -179.555000 14.144600 179.912000 -39.081100 -0.002282 -0.040193 -0.022135 0.074235 18.929100 -40.985400 0.000008 0.000006 4.460590 5.762000 -65.982100 -11.754300 -0.000006 -0.000006 -0.006050 -0.071289 -19.474500
0.000000 0.000000 0.000000 0.000000 0.000000 -0.000000 -2.018250 92.390200 -1.714300 88.553900 0.377833 3.544210 15.735700 0.000005 -0.000001 78.452500 85.943600 -76.621400 8.984550 -0.406207 -0.000000 0.213435 -1.744210 3.663190 16.377300 -0.000001 -0.000001 3.520440 -1.484450 -2.300000 6.456720 -0.000001 -0.000000 4.415550 -1.871790 -2.244110 12.994200 -0.242716 4.980390 -88.024200 -5.576250 -70.453900 5.348090 -0.000007 -0.000001 -80.835500 -32.702100 -84.426300 24.328600 0.000019 0.000005 3.893660 0.425978 -83.766200 22.291600 -0.000001 0.000005 15.490800 5.571500 -9.765080 12.994500 -0.242716 -4.980390 88.362800 5.414290 -73.147400 -5.348130 -0.000001 -0.000004 -63.810100 39.596400 -16.867000 -24.328900 0.000322 -0.000009 2.054710 7.413930 -15.545400 -22.291500 -0.000108 -0.000004 8.111910 5.426170 -3.808140 -2.192480 -6.469440 -0.000000 -175.268000 -5.596490 -3.188710 39.081100 -0.000007 -0.000012 -0.105748 0.263158 21.892400 40.985400 -0.000006 -0.000013 -0.856493 4.585180 -65.381700 11.754300 -0.000000 0.000003 -0.000020 -0.000248 -16.587300 -2.192510 6.469440 -0.000001 -179.539000 14.119900 179.886000 -39.081100 -0.002282 -0.040193 -0.020922 0.070761 18.913200 -40.985400 0.000008 0.000006 4.485160 5.719100 -65.975000 -11.754300 -0.000006 -0.000006 -0.006212 -0.072749 -19.534000
0.000000 0.000000 0.000000 0.000000 0.000000 -0.000000 -2.019650 92.390500 -1.720180 88.538000 0.420575 3.546290 15.735700 0.000005 -0.000001 78.492500 85.942200 -76.659400 8.984550 -0.406207 -0.000000 0.217313 -1.739290 3.667280 16.377300 -0.000001 -0.000001 3.530550 -1.484570 -2.293290 6.456720 -0.000001 -0.000000 4.356130 -1.878230 -2.224690 12.994200 -0.242716 4.980390 -88.028000 -5.553230 -70.413700 5.348090 -0.000007 -0.000001 -80.845300 -32.673200 -84.477500 24.328600 0.000019 0.000005 3.975570 0.428493 -83.858300 22.291600 -0.000001 0.000005 15.614000 5.571620 -9.771250 12.994500 -0.242716 -4.980390 88.342900 5.465150 -73.103900 -5.348130 -0.000001 -0.000004 -63.785300 39.687400 -16.757800 -24.328900 0.000322 -0.000009 2.019220 7.288710 -15.538100 -22.291500 -0.000108 -0.000004 8.159450 5.425600 -3.788630 -2.192480 -6.469440 -0.000000 -175.257000 -5.591870 -3.197530 39.081100 -0.000007 -0.000012 -0.104374 0.259549 21.907000 40.985400 -0.000006 -0.000013 -0.844842 4.614580 -65.388100 11.754300 -0.000000 0.000003 -0.000022 -0.000276 -16.588300 -2.192510 6.469440 -0.000001 -179.520000 14.125900 179.892000 -39.081100 -0.002282 -0.040193 -0.021039 0.071159 18.899100 -40.985400 0.000008 0.000006 4.489720 5.696000 -65.965300 -11.754300 -0.000006 -0.000006 -0.006013 -0.070955 -19.460900
0.000000 0.000000 0.000000 0.000000 0.000000 -0.000000 -2.005240 92.392000 -1.725570 88.565600 0.440992 3.526460 15.735700 0.000005 -0.000001 78.537800 85.940200 -76.712100 8.984550 -0.406207 -0.000000 0.222110 -1.733200 3.652540 16.377300 -0.000001 -0.000001 3.486620 -1.496550 -2.319740 6.456720 -0.000001 -0.000000 4.358670 -1.877590 -2.228420 12.994200 -0.242716 4.980390 -88.029900 -5.541850 -70.394400 5.348090 -0.000007 -0.000001 -80.956400 -32.740300 -84.540100 24.328600 0.000019 0.000005 3.877210 0.407127 -84.014900 22.291600 -0.000001 0.000005 15.621400 5.571560 -9.768240 12.994500 -0.242716 -4.980390 88.340700 5.462750 -73.075000 -5.348130 -0.000001 -0.000004 -63.901500 39.652200 -16.633300 -24.328900 0.000322 -0.000009 2.042730 7.422840 -15.441500 -22.291500 -0.000108 -0.000004 8.149320 5.426910 -3.833200 -2.192480 -6.469440 -0.000000 -175.292000 -5.567510 -3.216020 39.081100 -0.000007 -0.000012 -0.104983 0.261391 21.882100 40.985400 -0.000006 -0.000013 -0.844279 4.606300 -65.366500 11.754300 -0.000000 0.000003 -0.000021 -0.000264 -16.587900 -2.192510 6.469440 -0.000001 -179.556000 14.144100 179.850000 -39.081100 -0.002282 -0.040193 -0.023026 0.076899 18.914000 -40.985400 0.000008 0.000006 4.397280 5.699230 -65.945600 -11.754300 -0.000006 -0.000006 -0.005935 -0.070241 -19.431700
0.000000 0.000000 0.000000 0.000000 0.000000 -0.000000 -1.999710 92.399500 -1.734430 88.574000 0.465446 3.538130 15.735700 0.000005 -0.000001 78.602000 85.932700 -76.783000 8.984550 -0.406207 -0.000000 0.238499 -1.726570 3.639480 16.377300 -0.000001 -0.000001 3.453860 -1.487770 -2.296940 6.456720 -0.000001 -0.000000 4.365570 -1.872220 -2.244020 12.994200 -0.242716 4.980390 -88.027700 -5.537530 -70.360300 5.348090 -0.000007 -0.000001 -81.020900 -32.779700 -84.556700 24.328600 0.000019 0.000005 3.759210 0.385674 -84.150800 22.291600 -0.000001 0.000005 15.682500 5.572930 -9.838970 12.994500 -0.242716 -4.980390 88.332400 5.485720 -73.062900 -5.348130 -0.000001 -0.000004 -63.948500 39.707500 -16.478300 -24.328900 0.000322 -0.000009 2.002890 7.290750 -15.414400 -22.291500 -0.000108 -0.000004 8.076770 5.425800 -3.795600 -2.192480 -6.469440 -0.000000 -175.307000 -5.550740 -3.182900 39.081100 -0.000007 -0.000012 -0.104243 0.260289 21.825600 40.985400 -0.000006 -0.000013 -0.833850 4.630020 -65.334400 11.754300 -0.000000 0.000003 -0.000023 -0.000287 -16.588800 -2.192510 6.469440 -0.000001 -179.558000 14.166100 179.884000 -39.081100 -0.002282 -0.040193 -0.019999 0.068171 18.886400 -40.985400 0.000008 0.000006 4.564280 5.663770 -65.961900 -11.754300 -0.000006 -0.000006 -0.005991 -0.070750 -19.452500
